<svg width="80" height="70" viewBox="0 0 80 70" fill="none" xmlns="http://www.w3.org/2000/svg">
<path d="M66.4755 12.0107H13.2584V69.1274H66.4755V12.0107Z" fill="url(#paint0_linear_20863_2)"/>
<path d="M13.0382 12.0107C13.1024 12.0107 13.1666 12.0383 13.2584 12.0658C13.2584 31.068 13.2584 50.0701 13.2584 69.0998C9.13862 69.421 5.66116 68.3841 2.89937 65.7233C0.945022 63.8332 -4.09456e-05 61.6127 -4.09456e-05 59.0987C-4.09456e-05 50.1986 -4.09456e-05 41.3077 -4.09456e-05 32.4076C-4.09456e-05 29.0127 -0.00921631 25.6178 -0.00921631 22.2229C-0.00921631 18.1215 2.20205 15.1395 6.26673 13.1209C8.35872 12.0933 10.6801 11.9373 13.0382 12.0107Z" fill="url(#paint1_linear_20863_2)"/>
<path d="M57.1808 12.0016C59.5573 12.0016 59.7958 12.0016 62.1631 12.0016C62.1631 31.068 62.1631 50.0701 62.1631 69.109C46.0053 69.109 33.7837 69.109 17.5708 69.109C17.5708 50.0793 17.5708 31.0771 17.5708 12.0199C19.938 12.0199 20.4519 12.0199 22.865 12.0199C22.865 11.7813 22.865 11.5978 22.865 11.4235C22.865 9.3774 22.8742 7.32212 22.8558 5.27601C22.8375 3.84466 23.2228 2.59681 24.3422 1.62422C25.1313 0.945241 26.0397 0.596578 27.0673 0.596578C30.2512 0.587402 33.4258 0.587402 36.6097 0.587402C41.9589 0.587402 47.3173 0.596578 52.6666 0.587402C54.0704 0.587402 55.2357 1.04617 56.1532 2.11051C56.8872 2.96382 57.1625 3.96394 57.1625 5.08333C57.1533 7.23954 57.1625 9.39575 57.1625 11.552C57.1533 11.6712 57.1625 11.8089 57.1808 12.0016ZM28.6088 12.0016C28.829 12.0016 28.9941 12.0016 29.1593 12.0016C31.6917 12.0016 34.2333 12.0016 36.7657 12.0016C41.5002 12.0016 46.2438 12.0016 50.9783 12.0107C51.3545 12.0107 51.4371 11.8914 51.4371 11.5336C51.4187 9.92792 51.4371 8.32223 51.4371 6.71654C51.4371 6.58809 51.4187 6.45963 51.4004 6.322C43.7848 6.322 36.2151 6.322 28.6088 6.322C28.6088 8.21213 28.6088 10.0656 28.6088 12.0016Z" fill="white"/>
<path d="M80 22.0761C80 18.2958 77.9355 15.479 74.2654 13.4329C72.0082 12.1758 69.4483 11.9373 66.8241 11.9923C66.4204 12.0015 66.4755 12.2125 66.4755 12.4328C66.4755 19.039 66.4755 25.6361 66.4755 32.2424C66.4755 43.8492 66.4755 55.4469 66.4663 67.0537C66.4663 67.7235 66.4663 68.3933 66.4663 69.1182C68.1179 69.1732 69.6869 69.1824 71.2283 68.8154C76.4399 67.5859 79.9908 63.7047 79.9908 59.1262C80.0092 46.7853 80 34.4261 80 22.0761Z" fill="url(#paint2_linear_20863_2)"/>
<path d="M44.2161 44.7852C44.2161 45.9688 44.2161 47.0882 44.2161 48.2168C44.2161 49.4921 44.2161 50.7675 44.2161 52.0337C44.2161 52.7953 43.8307 53.199 43.0784 53.199C41.0047 53.2082 38.9311 53.2082 36.8575 53.199C36.1693 53.199 35.7839 52.7677 35.7839 52.0429C35.7839 49.7674 35.7839 47.4919 35.7839 45.2164C35.7839 45.088 35.7839 44.9503 35.7839 44.7852C35.6096 44.7852 35.4812 44.7852 35.3435 44.7852C33.1047 44.7852 30.8568 44.7852 28.618 44.7852C27.728 44.7852 27.361 44.4273 27.361 43.5373C27.361 41.5646 27.361 39.5919 27.361 37.6192C27.361 36.72 27.7188 36.3622 28.6088 36.3622C30.8384 36.3622 33.068 36.3622 35.2977 36.3622C35.4445 36.3622 35.5821 36.3622 35.7748 36.3622C35.7748 36.2154 35.7748 36.0961 35.7748 35.9768C35.7748 33.7013 35.7748 31.4258 35.7748 29.1504C35.7748 28.3062 36.151 27.9392 36.9951 27.9392C38.9678 27.9392 40.9405 27.9392 42.9132 27.9392C43.8399 27.9392 44.1978 28.2879 44.1978 29.2329C44.2069 31.4901 44.1978 33.738 44.1978 35.9952C44.1978 36.1053 44.1978 36.2154 44.1978 36.3714C44.3446 36.3714 44.473 36.3714 44.5923 36.3714C46.8678 36.3714 49.1433 36.3714 51.4188 36.3805C52.2537 36.3805 52.6116 36.7476 52.6116 37.5825C52.6116 39.5644 52.6116 41.5463 52.6116 43.5282C52.6116 44.4365 52.2629 44.7852 51.3729 44.7852C49.1066 44.7852 46.8403 44.7852 44.5831 44.7944C44.4914 44.7852 44.3813 44.7852 44.2161 44.7852Z" fill="url(#paint3_linear_20863_2)"/>
<defs>
<linearGradient id="paint0_linear_20863_2" x1="13.2598" y1="40.5656" x2="66.473" y2="40.5656" gradientUnits="userSpaceOnUse">
<stop stop-color="#B0F4FF"/>
<stop offset="1" stop-color="#69DCFC"/>
</linearGradient>
<linearGradient id="paint1_linear_20863_2" x1="-4.09446e-05" y1="40.5746" x2="13.2597" y2="40.5746" gradientUnits="userSpaceOnUse">
<stop stop-color="#6CBCFC"/>
<stop offset="1" stop-color="#458DFC"/>
</linearGradient>
<linearGradient id="paint2_linear_20863_2" x1="66.4686" y1="40.5689" x2="80.0007" y2="40.5689" gradientUnits="userSpaceOnUse">
<stop stop-color="#6CBCFC"/>
<stop offset="1" stop-color="#458DFC"/>
</linearGradient>
<linearGradient id="paint3_linear_20863_2" x1="27.3666" y1="40.5783" x2="52.6299" y2="40.5783" gradientUnits="userSpaceOnUse">
<stop stop-color="#6CBCFC"/>
<stop offset="1" stop-color="#458DFC"/>
</linearGradient>
</defs>
</svg>
